<svg xmlns="http://www.w3.org/2000/svg" width="33" height="33" fill="none" viewBox="0 0 33 33"><path fill="#fff" stroke="#000" stroke-linecap="round" stroke-linejoin="round" stroke-width="1.5" d="M2.85831 24.1648C1.56363 23.388 1.56363 21.5116 2.85831 20.7348L15.471 13.1672C16.1044 12.7872 16.8956 12.7872 17.529 13.1672L30.1417 20.7348C31.4364 21.5116 31.4364 23.388 30.1417 24.1648L17.529 31.7324C16.8956 32.1124 16.1044 32.1124 15.471 31.7324L2.85831 24.1648Z"/><g filter="url(#filter0_b_52_60)"><path fill="#4F46E5" fill-opacity=".7" d="M2.85831 12.615C1.56363 11.8382 1.56363 9.96182 2.85831 9.18501L15.471 1.6174C16.1044 1.23738 16.8956 1.23738 17.529 1.61739L30.1417 9.18501C31.4364 9.96182 31.4364 11.8382 30.1417 12.615L17.529 20.1826C16.8956 20.5626 16.1044 20.5626 15.471 20.1826L2.85831 12.615Z"/><path stroke="#000" stroke-linecap="round" stroke-linejoin="round" stroke-width="1.5" d="M2.85831 12.615C1.56363 11.8382 1.56363 9.96182 2.85831 9.18501L15.471 1.6174C16.1044 1.23738 16.8956 1.23738 17.529 1.61739L30.1417 9.18501C31.4364 9.96182 31.4364 11.8382 30.1417 12.615L17.529 20.1826C16.8956 20.5626 16.1044 20.5626 15.471 20.1826L2.85831 12.615Z"/></g><defs><filter id="filter0_b_52_60" width="36.725" height="26.635" x="-1.863" y="-2.418" color-interpolation-filters="sRGB" filterUnits="userSpaceOnUse"><feFlood flood-opacity="0" result="BackgroundImageFix"/><feGaussianBlur in="BackgroundImage" stdDeviation="1.5"/><feComposite in2="SourceAlpha" operator="in" result="effect1_backgroundBlur_52_60"/><feBlend in="SourceGraphic" in2="effect1_backgroundBlur_52_60" mode="normal" result="shape"/></filter></defs></svg>